<svg xmlns="http://www.w3.org/2000/svg" viewBox="0 0 200 240" width="200" height="240">
  <defs>
    <linearGradient id="grad_fairness" x1="0%" y1="0%" x2="100%" y2="100%">
      <stop offset="0%" style="stop-color:#4A90E2;stop-opacity:1" />
      <stop offset="100%" style="stop-color:#9ACD32;stop-opacity:1" />
    </linearGradient>
     <filter id="shadow" x="-20%" y="-20%" width="140%" height="140%">
      <feGaussianBlur in="SourceAlpha" stdDeviation="3" result="blur"/>
      <feOffset in="blur" dx="2" dy="2" result="offsetBlur"/>
      <feMerge>
        <feMergeNode in="offsetBlur"/>
        <feMergeNode in="SourceGraphic"/>
      </feMerge>
    </filter>
  </defs>

  <!-- Hexagon shape -->
  <path d="M 100,5 L 190,62.5 L 190,177.5 L 100,235 L 10,177.5 L 10,62.5 Z"
        fill="url(#grad_fairness)"
        stroke="#FFFFFF"
        stroke-width="3"/>

  <!-- Judge's Scale -->
  <g transform="translate(100, 120) scale(0.8)" fill="none" stroke="#FFFFFF" stroke-width="5" stroke-linecap="round" stroke-linejoin="round" filter="url(#shadow)">
    <!-- Base -->
    <path d="M -50,50 L 50,50 L 0,-5 Z" fill="#FFFFFF" stroke="none"/>
    <path d="M 0,40 L 0,-20"/>
    <!-- Beam -->
    <path d="M -60,-20 L 60,-20"/>
    <!-- Left Pan -->
    <path d="M -60,-20 L -60,0"/>
    <path d="M -80,0 A 20,10 0 0 0 -40,0"/>
    <!-- Right Pan -->
    <path d="M 60,-20 L 60,0"/>
    <path d="M 40,0 A 20,10 0 0 1 80,0"/>
  </g>
</svg>
